REM DIRINDEX 1\2\5,1\2\6,1\2\7,1\2\8,1\3\9,1\3\10,1\3\11,1\4\12,1\4\13,1\4\14,1\4\15,1\4\16
REM DIRNAME cjc034,folder01,folder02,folder03,folder04,folder05,folder06,folder07,folder08,folder09,folder10,folder11,folder12,folder13,folder14,folder15
TITLE ""
FILE "1200_sec04_1391_1400.mp3" MP3
  TRACK 01 AUDIO
    TITLE "0:"
    INDEX 01 00:00:00
  TRACK 02 AUDIO
    TITLE "12:cjc034_09302"
    INDEX 01 00:00:17
  TRACK 03 AUDIO
    TITLE "0:"
    INDEX 01 00:01:52
  TRACK 04 AUDIO
    TITLE "13:cjc034_09303"
    INDEX 01 00:02:12
  TRACK 05 AUDIO
    TITLE "0:"
    INDEX 01 00:03:53
  TRACK 06 AUDIO
    TITLE "14:cjc034_09304"
    INDEX 01 00:04:15
  TRACK 07 AUDIO
    TITLE "0:"
    INDEX 01 00:05:50
  TRACK 08 AUDIO
    TITLE "15:cjc034_09305"
    INDEX 01 00:06:08
  TRACK 09 AUDIO
    TITLE "0:"
    INDEX 01 00:08:64
  TRACK 10 AUDIO
    TITLE "12:cjc034_09306"
    INDEX 01 00:10:19
  TRACK 11 AUDIO
    TITLE "0:"
    INDEX 01 00:12:50
  TRACK 12 AUDIO
    TITLE "13:cjc034_09307"
    INDEX 01 00:13:08
  TRACK 13 AUDIO
    TITLE "0:"
    INDEX 01 00:14:68
  TRACK 14 AUDIO
    TITLE "14:cjc034_09308"
    INDEX 01 00:15:27
  TRACK 15 AUDIO
    TITLE "0:"
    INDEX 01 00:17:57
  TRACK 16 AUDIO
    TITLE "15:cjc034_09309"
    INDEX 01 00:18:13
  TRACK 17 AUDIO
    TITLE "0:"
    INDEX 01 00:22:44
  TRACK 18 AUDIO
    TITLE "12:cjc034_09310"
    INDEX 01 00:24:02
  TRACK 19 AUDIO
    TITLE "0:"
    INDEX 01 00:25:17
  TRACK 20 AUDIO
    TITLE "13:cjc034_09311"
    INDEX 01 00:25:64
  TRACK 21 AUDIO
    TITLE "0:"
    INDEX 01 00:30:69
  TRACK 22 AUDIO
    TITLE "14:cjc034_09312"
    INDEX 01 00:31:27
  TRACK 23 AUDIO
    TITLE "0:"
    INDEX 01 00:32:41
  TRACK 24 AUDIO
    TITLE "15:cjc034_09313"
    INDEX 01 00:33:13
  TRACK 25 AUDIO
    TITLE "0:"
    INDEX 01 00:37:24
  TRACK 26 AUDIO
    TITLE "12:cjc034_09314"
    INDEX 01 00:38:55
  TRACK 27 AUDIO
    TITLE "0:"
    INDEX 01 00:40:11
  TRACK 28 AUDIO
    TITLE "13:cjc034_09315"
    INDEX 01 00:40:44
  TRACK 29 AUDIO
    TITLE "0:"
    INDEX 01 00:46:17
  TRACK 30 AUDIO
    TITLE "14:cjc034_09316"
    INDEX 01 00:46:49
  TRACK 31 AUDIO
    TITLE "0:"
    INDEX 01 00:48:06
  TRACK 32 AUDIO
    TITLE "15:cjc034_09317"
    INDEX 01 00:48:38
  TRACK 33 AUDIO
    TITLE "0:"
    INDEX 01 00:52:12
  TRACK 34 AUDIO
    TITLE "12:cjc034_09318"
    INDEX 01 00:53:41
  TRACK 35 AUDIO
    TITLE "0:"
    INDEX 01 00:56:74
  TRACK 36 AUDIO
    TITLE "13:cjc034_09319"
    INDEX 01 00:57:35
  TRACK 37 AUDIO
    TITLE "0:"
    INDEX 01 01:02:14
  TRACK 38 AUDIO
    TITLE "14:cjc034_09320"
    INDEX 01 01:02:50
  TRACK 39 AUDIO
    TITLE "0:"
    INDEX 01 01:06:06
  TRACK 40 AUDIO
    TITLE "15:cjc034_09321"
    INDEX 01 01:06:43
  TRACK 41 AUDIO
    TITLE "0:"
    INDEX 01 01:10:00
  TRACK 42 AUDIO
    TITLE "12:cjc034_09322"
    INDEX 01 01:11:31
  TRACK 43 AUDIO
    TITLE "0:"
    INDEX 01 01:12:68
  TRACK 44 AUDIO
    TITLE "13:cjc034_09323"
    INDEX 01 01:13:28
  TRACK 45 AUDIO
    TITLE "0:"
    INDEX 01 01:16:46
  TRACK 46 AUDIO
    TITLE "14:cjc034_09324"
    INDEX 01 01:17:06
  TRACK 47 AUDIO
    TITLE "0:"
    INDEX 01 01:18:43
  TRACK 48 AUDIO
    TITLE "15:cjc034_09325"
    INDEX 01 01:19:01
  TRACK 49 AUDIO
    TITLE "0:"
    INDEX 01 01:22:27
  TRACK 50 AUDIO
    TITLE "16:cjc034_09326"
    INDEX 01 01:23:62
  TRACK 51 AUDIO
    TITLE "0:"
    INDEX 01 01:26:07
  TRACK 52 AUDIO
    TITLE "12:cjc034_09327"
    INDEX 01 01:27:10
  TRACK 53 AUDIO
    TITLE "0:"
    INDEX 01 01:29:15
  TRACK 54 AUDIO
    TITLE "13:cjc034_09328"
    INDEX 01 01:29:46
  TRACK 55 AUDIO
    TITLE "0:"
    INDEX 01 01:33:29
  TRACK 56 AUDIO
    TITLE "14:cjc034_09329"
    INDEX 01 01:33:62
  TRACK 57 AUDIO
    TITLE "0:"
    INDEX 01 01:35:65
  TRACK 58 AUDIO
    TITLE "15:cjc034_09330"
    INDEX 01 01:36:25
  TRACK 59 AUDIO
    TITLE "0:"
    INDEX 01 01:40:52
  TRACK 60 AUDIO
    TITLE "12:cjc034_09331"
    INDEX 01 01:42:10
  TRACK 61 AUDIO
    TITLE "0:"
    INDEX 01 01:43:68
  TRACK 62 AUDIO
    TITLE "13:cjc034_09332"
    INDEX 01 01:44:28
  TRACK 63 AUDIO
    TITLE "0:"
    INDEX 01 01:46:25
  TRACK 64 AUDIO
    TITLE "14:cjc034_09333"
    INDEX 01 01:46:55
  TRACK 65 AUDIO
    TITLE "0:"
    INDEX 01 01:48:38
  TRACK 66 AUDIO
    TITLE "15:cjc034_09334"
    INDEX 01 01:48:73
  TRACK 67 AUDIO
    TITLE "0:"
    INDEX 01 01:52:30
  TRACK 68 AUDIO
    TITLE "12:cjc034_09335"
    INDEX 01 01:53:63
  TRACK 69 AUDIO
    TITLE "0:"
    INDEX 01 01:55:54
  TRACK 70 AUDIO
    TITLE "13:cjc034_09336"
    INDEX 01 01:56:12
  TRACK 71 AUDIO
    TITLE "0:"
    INDEX 01 01:59:55
  TRACK 72 AUDIO
    TITLE "14:cjc034_09337"
    INDEX 01 02:00:16
  TRACK 73 AUDIO
    TITLE "0:"
    INDEX 01 02:02:07
  TRACK 74 AUDIO
    TITLE "15:cjc034_09338"
    INDEX 01 02:02:44
  TRACK 75 AUDIO
    TITLE "0:"
    INDEX 01 02:05:48
  TRACK 76 AUDIO
    TITLE "12:cjc034_09339"
    INDEX 01 02:07:04
  TRACK 77 AUDIO
    TITLE "0:"
    INDEX 01 02:08:60
  TRACK 78 AUDIO
    TITLE "13:cjc034_09340"
    INDEX 01 02:09:17
  TRACK 79 AUDIO
    TITLE "0:"
    INDEX 01 02:10:71
  TRACK 80 AUDIO
    TITLE "14:cjc034_09341"
    INDEX 01 02:11:29
  TRACK 81 AUDIO
    TITLE "0:"
    INDEX 01 02:13:09
  TRACK 82 AUDIO
    TITLE "15:cjc034_09342"
    INDEX 01 02:13:42
  TRACK 83 AUDIO
    TITLE "0:"
    INDEX 01 02:17:26
